<svg width="947" height="227" viewBox="0 0 947 227" fill="none" xmlns="http://www.w3.org/2000/svg">
<path d="M89.0007 0.0662842L174.794 164.642H3.20752L89.0007 0.0662842Z" fill="#BDB2DF"/>
<path d="M89.0007 211.09L174.794 164.642H3.20752L89.0007 211.09Z" fill="#BDB2DF"/>
<path d="M37.9538 97.0302L89.4089 121.899L89.4089 0.0663227L37.9538 97.0302Z" fill="#9688BD"/>
<path d="M140.864 97.0302L89.409 121.899L89.409 0.0663227L140.864 97.0302Z" fill="#B1A3D9"/>
<path d="M2.22358 164.966L89.6334 122.228L38.5799 96.7012L2.22358 164.966Z" fill="#9284BA"/>
<path d="M176.463 164.773L88.8599 122.228L140.88 97.088L176.463 164.773Z" fill="#B5A7DB"/>
<path d="M89.44 212.152L176.528 165.16H2.35254L89.44 212.152Z" fill="#BDB2DF"/>
<path d="M89.4708 122.302L89.4708 212.345L2.44771 164.847L89.4708 122.302Z" fill="#887BAE"/>
<path d="M89.44 122.302L89.44 212.345L176.463 164.847L89.44 122.302Z" fill="#9687B7"/>
<path fill-rule="evenodd" clip-rule="evenodd" d="M89.2239 131.571C90.0451 131.461 90.7995 132.038 90.909 132.859C91.0205 133.695 90.818 134.574 90.5127 135.337C90.1972 136.126 89.7195 136.924 89.1279 137.639C87.9799 139.028 86.1786 140.359 84.0074 140.359C81.9302 140.359 80.2067 139.284 79.5164 137.52C78.8357 135.781 79.3054 133.757 80.7413 132.081C81.2804 131.452 82.2274 131.38 82.8564 131.919C83.4854 132.458 83.5582 133.405 83.0191 134.034C82.1344 135.066 82.1206 135.943 82.3101 136.427C82.49 136.887 82.9905 137.359 84.0074 137.359C84.9303 137.359 85.9654 136.756 86.8157 135.728C87.2232 135.235 87.5352 134.703 87.7273 134.223C87.9297 133.717 87.9528 133.387 87.9353 133.256C87.8258 132.435 88.4028 131.68 89.2239 131.571Z" fill="black"/>
<path fill-rule="evenodd" clip-rule="evenodd" d="M89.6561 131.571C88.8349 131.461 88.0805 132.038 87.971 132.859C87.8595 133.695 88.062 134.574 88.3673 135.337C88.6828 136.126 89.1605 136.924 89.7521 137.639C90.9001 139.028 92.7014 140.359 94.8726 140.359C96.9498 140.359 98.6733 139.284 99.3636 137.52C100.044 135.781 99.5747 133.757 98.1387 132.081C97.5996 131.452 96.6526 131.38 96.0236 131.919C95.3947 132.458 95.3218 133.405 95.8609 134.034C96.7456 135.066 96.7594 135.943 96.5699 136.427C96.39 136.887 95.8895 137.359 94.8726 137.359C93.9497 137.359 92.9146 136.756 92.0643 135.728C91.6568 135.235 91.3448 134.703 91.1527 134.223C90.9503 133.717 90.9272 133.387 90.9447 133.256C91.0542 132.435 90.4772 131.68 89.6561 131.571Z" fill="black"/>
<path d="M68.9412 112.365C68.9412 117.706 64.6122 122.035 59.272 122.035C53.9318 122.035 49.6028 117.706 49.6028 112.365C49.6028 107.025 53.9318 102.696 59.272 102.696C64.6122 102.696 68.9412 107.025 68.9412 112.365Z" fill="black"/>
<path d="M61.5926 118.36C61.5926 116.972 60.467 115.846 59.0786 115.846C57.6901 115.846 56.5646 116.972 56.5646 118.36C56.5646 119.749 57.6901 120.874 59.0786 120.874C60.467 120.874 61.5926 119.749 61.5926 118.36Z" fill="white"/>
<path d="M68.9412 111.205C68.9412 109.069 67.2096 107.337 65.0735 107.337C62.9374 107.337 61.2058 109.069 61.2058 111.205C61.2058 113.341 62.9374 115.073 65.0735 115.073C67.2096 115.073 68.9412 113.341 68.9412 111.205Z" fill="white"/>
<path d="M129.277 112.365C129.277 117.706 124.948 122.035 119.608 122.035C114.268 122.035 109.939 117.706 109.939 112.365C109.939 107.025 114.268 102.696 119.608 102.696C124.948 102.696 129.277 107.025 129.277 112.365Z" fill="black"/>
<path d="M121.929 118.36C121.929 116.972 120.803 115.846 119.415 115.846C118.026 115.846 116.901 116.972 116.901 118.36C116.901 119.749 118.026 120.874 119.415 120.874C120.803 120.874 121.929 119.749 121.929 118.36Z" fill="white"/>
<path d="M129.277 111.205C129.277 109.069 127.546 107.337 125.409 107.337C123.273 107.337 121.542 109.069 121.542 111.205C121.542 113.341 123.273 115.073 125.409 115.073C127.546 115.073 129.277 113.341 129.277 111.205Z" fill="white"/>
<path d="M61.2058 140.019C61.2058 146.428 56.0109 151.622 49.6027 151.622C43.1945 151.622 37.9996 146.428 37.9996 140.019C37.9996 133.611 43.1945 128.416 49.6027 128.416C56.0109 128.416 61.2058 133.611 61.2058 140.019Z" fill="#F78865"/>
<path d="M140.107 140.019C140.107 146.428 134.912 151.622 128.504 151.622C122.096 151.622 116.901 146.428 116.901 140.019C116.901 133.611 122.096 128.416 128.504 128.416C134.912 128.416 140.107 133.611 140.107 140.019Z" fill="#F78865"/>
<path d="M294.903 157.337C294.903 152.274 293.11 148.372 289.524 145.63C285.991 142.888 279.584 140.119 270.303 137.324C261.021 134.529 253.639 131.418 248.154 127.99C237.66 121.398 232.413 112.803 232.413 102.203C232.413 92.9219 236.184 85.2754 243.725 79.2637C251.318 73.252 261.153 70.2461 273.229 70.2461C281.245 70.2461 288.391 71.7227 294.666 74.6758C300.941 77.6289 305.872 81.8477 309.458 87.332C313.044 92.7637 314.837 98.8018 314.837 105.446H294.903C294.903 99.4346 293.005 94.7412 289.208 91.3662C285.464 87.9385 280.085 86.2246 273.071 86.2246C266.532 86.2246 261.443 87.6221 257.805 90.417C254.219 93.2119 252.426 97.1143 252.426 102.124C252.426 106.343 254.377 109.876 258.279 112.724C262.182 115.519 268.615 118.261 277.58 120.95C286.545 123.587 293.743 126.619 299.175 130.047C304.606 133.422 308.588 137.324 311.119 141.754C313.65 146.131 314.916 151.272 314.916 157.179C314.916 166.776 311.225 174.423 303.842 180.118C296.512 185.761 286.545 188.582 273.941 188.582C265.609 188.582 257.937 187.053 250.923 183.994C243.962 180.883 238.53 176.611 234.628 171.18C230.778 165.748 228.854 159.42 228.854 152.195H248.866C248.866 158.734 251.028 163.797 255.353 167.383C259.677 170.969 265.873 172.762 273.941 172.762C280.902 172.762 286.123 171.364 289.604 168.569C293.137 165.722 294.903 161.978 294.903 157.337ZM422.811 158.523L440.529 71.8281H460.384L433.806 187H414.663L392.752 102.915L370.366 187H351.145L324.566 71.8281H344.421L362.298 158.365L384.288 71.8281H401.058L422.811 158.523ZM496.138 187H476.204V71.8281H496.138V187ZM580.935 157.337C580.935 152.274 579.142 148.372 575.556 145.63C572.022 142.888 565.615 140.119 556.334 137.324C547.053 134.529 539.67 131.418 534.186 127.99C523.691 121.398 518.444 112.803 518.444 102.203C518.444 92.9219 522.215 85.2754 529.756 79.2637C537.35 73.252 547.185 70.2461 559.261 70.2461C567.276 70.2461 574.422 71.7227 580.697 74.6758C586.973 77.6289 591.903 81.8477 595.489 87.332C599.075 92.7637 600.868 98.8018 600.868 105.446H580.935C580.935 99.4346 579.036 94.7412 575.239 91.3662C571.495 87.9385 566.116 86.2246 559.103 86.2246C552.563 86.2246 547.475 87.6221 543.836 90.417C540.25 93.2119 538.457 97.1143 538.457 102.124C538.457 106.343 540.408 109.876 544.311 112.724C548.213 115.519 554.646 118.261 563.611 120.95C572.576 123.587 579.774 126.619 585.206 130.047C590.638 133.422 594.619 137.324 597.15 141.754C599.682 146.131 600.947 151.272 600.947 157.179C600.947 166.776 597.256 174.423 589.873 180.118C582.543 185.761 572.576 188.582 559.973 188.582C551.641 188.582 543.968 187.053 536.954 183.994C529.993 180.883 524.562 176.611 520.659 171.18C516.81 165.748 514.885 159.42 514.885 152.195H534.897C534.897 158.734 537.06 163.797 541.384 167.383C545.708 170.969 551.904 172.762 559.973 172.762C566.934 172.762 572.154 171.364 575.635 168.569C579.168 165.722 580.935 161.978 580.935 157.337ZM685.823 135.584H638.521V171.021H693.812V187H618.508V71.8281H693.259V87.9648H638.521V119.764H685.823V135.584ZM745.545 145.788H704.017V130.284H745.545V145.788ZM829.63 138.194H783.276V187H763.264V71.8281H836.433V87.9648H783.276V122.216H829.63V138.194ZM940.214 149.506C939.054 161.793 934.519 171.391 926.608 178.299C918.698 185.154 908.178 188.582 895.047 188.582C885.871 188.582 877.776 186.42 870.763 182.096C863.802 177.719 858.423 171.522 854.626 163.507C850.829 155.491 848.852 146.184 848.693 135.584V124.826C848.693 113.963 850.618 104.392 854.468 96.1123C858.317 87.833 863.828 81.4521 871 76.9697C878.225 72.4873 886.557 70.2461 895.996 70.2461C908.705 70.2461 918.936 73.7002 926.688 80.6084C934.439 87.5166 938.948 97.2725 940.214 109.876H920.28C919.331 101.597 916.905 95.6377 913.003 91.999C909.153 88.3076 903.484 86.4619 895.996 86.4619C887.295 86.4619 880.598 89.6523 875.904 96.0332C871.264 102.361 868.891 111.669 868.785 123.956V134.16C868.785 146.605 871 156.098 875.43 162.637C879.912 169.176 886.451 172.445 895.047 172.445C902.904 172.445 908.811 170.679 912.766 167.146C916.721 163.612 919.226 157.732 920.28 149.506H940.214Z" fill="black"/>
</svg>
